<svg width="30" height="30" viewBox="0 0 30 30" fill="none" xmlns="http://www.w3.org/2000/svg">
<path d="M21.0059 7.81588C20.442 7.30186 18.1594 5.66283 13.0704 5.64092C13.0704 5.64092 7.07108 5.28503 4.14911 7.939C2.5238 9.54711 1.95097 11.9067 1.88879 14.8287C1.8266 17.7508 1.75112 23.2256 7.08438 24.7108H7.08878L7.08438 26.9781C7.08438 26.9781 7.04889 27.8964 7.66166 28.081C8.39885 28.3095 8.83401 27.6109 9.54006 26.8594C9.92642 26.4464 10.4593 25.8401 10.8634 25.3786C14.5136 25.6819 17.3158 24.9876 17.6354 24.8866C18.3726 24.6493 22.5424 24.122 23.2173 18.6471C23.9189 12.9964 22.8799 9.4285 21.0059 7.81588ZM21.6232 18.2341C21.0503 22.8037 17.6709 23.0937 17.0493 23.2915C16.7828 23.3749 14.3182 23.9814 11.2231 23.7836C11.2231 23.7836 8.91394 26.5386 8.19454 27.2549C7.95919 27.4877 7.70165 27.4658 7.7061 27.0044C7.7061 26.7013 7.72384 23.2388 7.72384 23.2388C7.7194 23.2388 7.7194 23.2388 7.72384 23.2388C3.20321 21.9996 3.46965 17.3376 3.51849 14.899C3.56733 12.4604 4.03363 10.4611 5.41024 9.11658C7.88371 6.89759 12.9772 7.22717 12.9772 7.22717C17.2802 7.24473 19.3407 8.52772 19.8203 8.95835C21.4055 10.3029 22.2138 13.5193 21.6232 18.2341ZM15.4506 14.6837C15.4683 15.0616 14.8955 15.088 14.8778 14.71C14.8289 13.7434 14.3715 13.2733 13.4301 13.2205C13.0482 13.1985 13.0837 12.6317 13.4611 12.6537C14.7002 12.7196 15.3885 13.4226 15.4506 14.6837ZM16.3521 15.1802C16.3964 13.3171 15.2197 11.8584 12.986 11.6958C12.6086 11.6695 12.6485 11.1026 13.0261 11.129C15.6017 11.3136 16.9738 13.0668 16.9249 15.1934C16.9205 15.5712 16.3432 15.5537 16.3521 15.1802ZM18.4392 15.769C18.4436 16.1469 17.8663 16.1513 17.8663 15.7734C17.8397 12.1923 15.4285 10.2414 12.502 10.2194C12.1245 10.215 12.1245 9.65262 12.502 9.65262C15.7748 9.67458 18.4081 11.9111 18.4392 15.769ZM17.9374 20.0795V20.0883C17.4578 20.9232 16.5608 21.846 15.6371 21.5515L15.6282 21.5383C14.6912 21.2791 12.4843 20.1543 11.0899 19.0557C10.3705 18.4933 9.71322 17.8298 9.20698 17.1927C8.74963 16.6258 8.28782 15.9535 7.83932 15.1451C6.89347 13.4534 6.68477 12.6976 6.68477 12.6976C6.38723 11.7837 7.31533 10.896 8.16345 10.4215H8.1724C8.58091 10.2106 8.97168 10.2809 9.23367 10.5928C9.23367 10.5928 9.78435 11.2431 10.0197 11.5639C10.2417 11.8627 10.5392 12.3416 10.6947 12.6097C10.9656 13.0886 10.7967 13.5763 10.5303 13.7784L9.99746 14.2003C9.72662 14.4155 9.76211 14.8154 9.76211 14.8154C9.76211 14.8154 10.5525 17.7726 13.5056 18.5196C13.5056 18.5196 13.9098 18.5547 14.1273 18.2867L14.5536 17.7594C14.7578 17.4958 15.2508 17.3288 15.7348 17.5969C16.3876 17.9615 17.218 18.5284 17.7687 19.0425C18.0795 19.2929 18.1505 19.6753 17.9374 20.0795Z" fill="white"/>
</svg>
