<svg aria-hidden="true" style="position: absolute; width: 0; height: 0; overflow: hidden;" version="1.1" xmlns="http://www.w3.org/2000/svg" xmlns:xlink="http://www.w3.org/1999/xlink">
<defs>
<symbol id="icon-bag-desktop" viewBox="0 0 29 32">
<path d="M0 0h28.757v32h-28.757v-32z"></path>
</symbol>
<symbol id="icon-btn-mobile-menu-on-header" viewBox="0 0 32 32">
<path fill="#fff" style="fill: var(--color1, #fff)" d="M32 16c0 8.837-7.163 16-16 16s-16-7.163-16-16c0-8.837 7.163-16 16-16s16 7.163 16 16z"></path>
</symbol>
<symbol id="icon-btn-to-left" viewBox="0 0 32 32">
<path fill="none" stroke="#67aefc" style="stroke: var(--color2, #67aefc)" stroke-linejoin="miter" stroke-linecap="butt" stroke-miterlimit="4" stroke-width="1.0667" d="M8 0.533h16c4.124 0 7.467 3.343 7.467 7.467v16c0 4.124-3.343 7.467-7.467 7.467h-16c-4.124 0-7.467-3.343-7.467-7.467v-16c0-4.124 3.343-7.467 7.467-7.467z"></path>
<path fill="none" stroke="#000" style="stroke: var(--color3, #000)" stroke-linejoin="round" stroke-linecap="round" stroke-miterlimit="4" stroke-width="1.0667" d="M17.6 22.4l-6.4-6.4 6.4-6.4"></path>
</symbol>
<symbol id="icon-btn-to-right" viewBox="0 0 32 32">
<path fill="none" stroke="#67aefc" style="stroke: var(--color2, #67aefc)" stroke-linejoin="miter" stroke-linecap="butt" stroke-miterlimit="4" stroke-width="1.0667" d="M8 0.533h16c4.124 0 7.467 3.343 7.467 7.467v16c0 4.124-3.343 7.467-7.467 7.467h-16c-4.124 0-7.467-3.343-7.467-7.467v-16c0-4.124 3.343-7.467 7.467-7.467z"></path>
<path fill="none" stroke="#000" style="stroke: var(--color3, #000)" stroke-linejoin="round" stroke-linecap="round" stroke-miterlimit="4" stroke-width="1.0667" d="M13.867 22.4l6.4-6.4-6.4-6.4"></path>
</symbol>
<symbol id="icon-chevron-down" viewBox="0 0 32 32">
<path d="M15.292 22.708c0.093 0.093 0.203 0.167 0.325 0.217s0.252 0.076 0.383 0.076c0.132 0 0.262-0.026 0.383-0.076s0.232-0.124 0.325-0.217l12-12c0.188-0.188 0.293-0.442 0.293-0.708s-0.105-0.52-0.293-0.708c-0.188-0.188-0.442-0.293-0.708-0.293s-0.52 0.105-0.708 0.293l-11.292 11.294-11.292-11.294c-0.188-0.188-0.442-0.293-0.708-0.293s-0.52 0.105-0.708 0.293c-0.188 0.188-0.293 0.442-0.293 0.708s0.106 0.52 0.293 0.708l12 12z"></path>
</symbol>
<symbol id="icon-chevron-up" viewBox="0 0 32 32">
<path d="M15.292 9.757c0.093-0.093 0.203-0.167 0.325-0.217s0.252-0.076 0.383-0.076c0.132 0 0.262 0.026 0.383 0.076s0.232 0.124 0.325 0.217l12 12c0.188 0.188 0.293 0.442 0.293 0.708s-0.105 0.52-0.293 0.708c-0.188 0.188-0.442 0.293-0.708 0.293s-0.52-0.105-0.708-0.293l-11.292-11.294-11.292 11.294c-0.188 0.188-0.442 0.293-0.708 0.293s-0.52-0.105-0.708-0.293c-0.188-0.188-0.293-0.442-0.293-0.708s0.106-0.52 0.293-0.708l12-12z"></path>
</symbol>
<symbol id="icon-circle-blue" viewBox="0 0 32 32">
<path fill="#6eb1fb" style="fill: var(--color4, #6eb1fb)" d="M32 16c0 8.837-7.163 16-16 16s-16-7.163-16-16c0-8.837 7.163-16 16-16s16 7.163 16 16z"></path>
</symbol>
<symbol id="icon-circle-green" viewBox="0 0 32 32">
<path fill="#75e169" style="fill: var(--color5, #75e169)" d="M32 16c0 8.837-7.163 16-16 16s-16-7.163-16-16c0-8.837 7.163-16 16-16s16 7.163 16 16z"></path>
</symbol>
<symbol id="icon-circle-white" viewBox="0 0 32 32">
<path fill="#fff" style="fill: var(--color1, #fff)" d="M32 16c0 8.837-7.163 16-16 16s-16-7.163-16-16c0-8.837 7.163-16 16-16s16 7.163 16 16z"></path>
</symbol>
<symbol id="icon-fb" viewBox="0 0 16 32">
<path fill="#fff" style="fill: var(--color1, #fff)" d="M15.261 11.203h-4.61v-3.007c0.301-2.906 5.111-2.305 5.111-2.305v-4.911c-0.2 0-9.421-2.205-11.325 4.811-0.301 0.902-0.301 4.911-0.301 5.412h-4.009v5.412h4.209v14.732h6.113v-14.732h4.811l0.501-5.412h-0.501z"></path>
</symbol>
<symbol id="icon-f-footer-desktop" viewBox="0 0 17 32">
<path fill="#fff" style="fill: var(--color1, #fff)" d="M11.167 2.009l0.189 0.031h2.613v3.014h-2.613c-0.147 0-0.289 0.010-0.425 0.031s-0.247 0.058-0.331 0.11c-0.084 0.052-0.163 0.11-0.236 0.173s-0.136 0.126-0.189 0.188c-0.052 0.063-0.094 0.131-0.126 0.204s-0.052 0.136-0.063 0.188l-0.031 0.157-0.016 0.11v4.835h5.101l-0.724 3.014h-4.376v15.071h-3.023v-15.071h-4.030v-3.014h4.030v-4.678c0-0.649 0.084-1.23 0.252-1.743s0.394-0.916 0.677-1.209c0.283-0.293 0.572-0.544 0.866-0.754s0.619-0.356 0.976-0.44c0.357-0.084 0.64-0.141 0.85-0.173s0.42-0.047 0.63-0.047zM11.167 0c-1.301 0-2.466 0.314-3.495 0.942-1.847 1.109-2.771 2.92-2.771 5.432v2.669h-2.015c-0.546 0-1.018 0.199-1.417 0.597s-0.598 0.869-0.598 1.413v3.014c0 0.544 0.199 1.015 0.598 1.413s0.871 0.597 1.417 0.597h2.015v13.030c0 0.565 0.194 1.041 0.582 1.429s0.866 0.581 1.433 0.581h3.023c0.546 0 1.018-0.194 1.417-0.581s0.598-0.863 0.598-1.429v-13.030h2.361c0.462 0 0.871-0.136 1.228-0.408s0.598-0.617 0.724-1.036l0.693-3.014c0.189-0.649 0.084-1.24-0.315-1.774s-0.934-0.801-1.606-0.801h-3.085v-1.978h2.015c0.546 0 1.018-0.199 1.417-0.597s0.598-0.869 0.598-1.413v-3.014c0-0.565-0.194-1.041-0.582-1.429s-0.855-0.581-1.401-0.581h-2.582c-0.084-0.021-0.168-0.031-0.252-0.031z"></path>
</symbol>
<symbol id="icon-ins-footer-desktop" viewBox="0 0 32 32">
<path fill="#fff" style="fill: var(--color1, #fff)" d="M15.557 8.090c-1.477 0-2.921 0.438-4.149 1.259s-2.185 1.987-2.75 3.351c-0.565 1.364-0.713 2.866-0.425 4.314s0.999 2.779 2.044 3.824c1.044 1.044 2.375 1.756 3.824 2.044s2.95 0.14 4.314-0.425c1.365-0.565 2.531-1.522 3.351-2.75s1.259-2.672 1.259-4.149c-0.002-1.98-0.79-3.878-2.19-5.278s-3.298-2.187-5.278-2.19zM15.557 20.536c-0.985 0-1.947-0.292-2.766-0.839s-1.457-1.325-1.834-2.234c-0.377-0.91-0.475-1.911-0.283-2.876s0.666-1.853 1.362-2.549c0.696-0.696 1.583-1.17 2.549-1.362s1.967-0.094 2.876 0.283 1.687 1.015 2.234 1.834c0.547 0.819 0.839 1.781 0.839 2.766-0.001 1.32-0.527 2.585-1.46 3.519s-2.199 1.458-3.519 1.46zM22.403 0h-13.691c-2.31 0.003-4.524 0.921-6.158 2.555s-2.552 3.848-2.555 6.158v13.691c0.003 2.31 0.921 4.524 2.555 6.158s3.848 2.552 6.158 2.555h13.691c2.31-0.003 4.524-0.921 6.158-2.555s2.552-3.848 2.555-6.158v-13.691c-0.003-2.31-0.921-4.524-2.555-6.158s-3.848-2.552-6.158-2.555zM28.626 22.403c-0.002 1.65-0.658 3.232-1.825 4.398s-2.748 1.823-4.398 1.825h-13.691c-1.65-0.002-3.232-0.658-4.398-1.825s-1.823-2.748-1.825-4.398v-13.691c0.002-1.65 0.658-3.232 1.825-4.398s2.748-1.823 4.398-1.825h13.691c1.65 0.002 3.232 0.658 4.398 1.825s1.823 2.748 1.825 4.398v13.691zM25.514 7.468c0 0.369-0.109 0.73-0.315 1.037s-0.497 0.546-0.838 0.688c-0.341 0.141-0.717 0.178-1.079 0.106s-0.695-0.25-0.956-0.511-0.439-0.594-0.511-0.956c-0.072-0.362-0.035-0.737 0.106-1.079s0.381-0.633 0.688-0.838c0.307-0.205 0.668-0.315 1.037-0.315 0.495 0 0.97 0.197 1.32 0.547s0.547 0.825 0.547 1.32z"></path>
</symbol>
<symbol id="icon-insta" viewBox="0 0 33 32">
<path fill="#fff" style="fill: var(--color1, #fff)" d="M16.225 0.208c-3.948 0-4.571 0-6.234 0.104s-2.909 0.312-3.844 0.727c-1.039 0.416-1.974 0.935-2.805 1.87-0.935 0.935-1.455 1.766-1.87 2.805s-0.623 2.182-0.727 3.844c-0.104 1.662-0.104 2.286-0.104 6.545 0 4.364 0 4.883 0.104 6.546s0.312 2.909 0.727 3.844c0.416 1.039 0.935 1.974 1.87 2.805 0.935 0.935 1.766 1.454 2.805 1.87s2.182 0.623 3.844 0.727 2.286 0.104 6.545 0.104c4.364 0 4.883 0 6.546-0.104s2.909-0.312 3.844-0.727c1.039-0.416 1.974-0.935 2.805-1.87 0.935-0.935 1.454-1.766 1.87-2.805s0.623-2.182 0.727-3.844c0.104-1.662 0.104-2.182 0.104-6.234v-0.831c0-3.948 0-4.571-0.104-6.234s-0.312-2.909-0.727-3.844c-0.416-1.039-0.935-1.974-1.87-2.805-0.935-0.935-1.766-1.455-2.805-1.87s-2.182-0.623-3.844-0.727c-1.662-0.104-2.182-0.104-6.234-0.104h-0.623v0.208zM27.134 7.584c0 1.039-0.831 1.87-1.87 1.87s-1.87-0.831-1.87-1.87c0-1.039 0.831-1.87 1.87-1.87 0.935 0 1.87 0.831 1.87 1.87zM16.641 21.403c-2.909 0-5.299-2.39-5.299-5.299s2.39-5.299 5.299-5.299c2.909 0 5.299 2.39 5.299 5.299s-2.39 5.299-5.299 5.299zM16.641 7.896c4.571 0 8.208 3.636 8.208 8.208s-3.636 8.208-8.208 8.208c-4.571 0-8.208-3.636-8.208-8.208s3.74-8.208 8.208-8.208zM16.641 3.013c4.26 0 4.779 0 6.442 0.104 1.558 0.104 2.39 0.312 3.013 0.519 0.727 0.312 1.247 0.623 1.87 1.143 0.52 0.519 0.935 1.039 1.143 1.87 0.208 0.519 0.52 1.455 0.52 3.013 0.104 1.662 0.104 2.182 0.104 6.442s0 4.779-0.104 6.442c-0.104 1.558-0.312 2.39-0.52 3.013-0.312 0.727-0.623 1.247-1.143 1.87-0.519 0.519-1.039 0.935-1.87 1.143-0.52 0.208-1.454 0.519-3.013 0.519-1.662 0.104-2.182 0.104-6.442 0.104s-4.779 0-6.441-0.104c-1.558-0.104-2.39-0.312-3.013-0.519-0.727-0.312-1.247-0.623-1.87-1.143-0.519-0.519-0.935-1.039-1.143-1.87-0.208-0.519-0.519-1.454-0.519-3.013-0.104-1.662-0.104-2.182-0.104-6.442s0-4.779 0.104-6.442c0.104-1.558 0.312-2.39 0.519-3.013 0.312-0.727 0.623-1.247 1.143-1.87 0.519-0.519 1.039-0.935 1.87-1.143 0.519-0.208 1.455-0.519 3.013-0.519 1.662-0.104 2.182-0.104 6.441-0.104z"></path>
</symbol>
<symbol id="icon-need-more-inf" viewBox="0 0 46 32">
<path d="M29.922 0.854h-1.601v1.622h1.601v-1.622z"></path>
<path d="M34.617 0.001h-3.351v3.35h3.351v-3.35z"></path>
<path d="M45.714 15.537h-4.695v5.186h4.695v-5.186z"></path>
<path d="M40.98 0.98h-33.468v31.019h33.468v-31.019z"></path>
<path d="M13.831 5.144h-8.558v9.070h8.558v-9.070z"></path>
<path d="M38.331 19.783h-16.816v8.963h16.816v-8.963z"></path>
<path d="M11.398 21.533h-11.375v5.527h11.375v-5.527z"></path>
</symbol>
<symbol id="icon-step1" viewBox="0 0 30 32">
<path d="M30.345 0h-30.345v31.987h30.345v-31.987z"></path>
</symbol>
<symbol id="icon-step2" viewBox="0 0 33 32">
<path d="M0 0h32.593v31.953h-32.593v-31.953z"></path>
</symbol>
<symbol id="icon-step3" viewBox="0 0 32 32">
<path d="M20.515 19.647l7.123 2.005-1.903 6.762-7.123-2.005 1.903-6.762z"></path>
<path d="M27.541 11.947l1.772 0.499-0.499 1.772-1.772-0.499 0.499-1.772z"></path>
<path d="M4.737 22.465l6.997 1.969-0.987 3.507-6.997-1.969 0.987-3.507z"></path>
<path d="M7.137 0l3.887 1.094-1.089 3.869-3.887-1.094 1.089-3.869z"></path>
<path d="M20.891 3.89l10.721 3.017-1.257 4.466-10.721-3.017 1.257-4.466z"></path>
<path d="M11.537 3.365l14.156 3.984-5.973 21.226-14.156-3.984 5.973-21.226z"></path>
<path d="M6.029 6.712l12.818 3.607-2.539 9.022-12.818-3.607 2.539-9.022z"></path>
</symbol>
<symbol id="icon-step4" viewBox="0 0 39 32">
<path d="M6.188 15.022h5.86v5.86h-5.86v-5.86z"></path>
<path d="M9.009 2.515h20.27v26.852h-20.27v-26.852z"></path>
<path d="M6.91 0h7.741v7.478h-7.741v-7.478z"></path>
<path d="M23.463 14.629h15.372v16.028h-15.372v-16.028z"></path>
<path d="M32.953 4.767h4.133v8.878h-4.133v-8.878z"></path>
<path d="M21.626 25.409h3.761v6.451h-3.761v-6.451z"></path>
<path d="M0 23.572h15.591v6.472h-15.591v-6.472z"></path>
</symbol>
<symbol id="icon-step5" viewBox="0 0 36 32">
<path d="M7.728 0h-7.728v7.266h7.728v-7.266z"></path>
<path d="M2.149 8.074l4.378 1.232-1.226 4.358-4.378-1.232 1.226-4.358z"></path>
<path d="M7.031 1.664l28.794 1.527-1.527 28.794-28.794-1.527 1.527-28.794z"></path>
</symbol>
<symbol id="icon-t-footer-desktop" viewBox="0 0 34 32">
<path fill="#fff" style="fill: var(--color1, #fff)" d="M33.18 0.55c-0.305-0.27-0.676-0.449-1.073-0.518s-0.805-0.026-1.18 0.126l-29.177 11.741c-0.445 0.179-0.821 0.501-1.073 0.917s-0.365 0.905-0.322 1.393c0.042 0.488 0.238 0.948 0.557 1.313s0.745 0.614 1.214 0.71l7.665 1.57v9.747c-0 0.449 0.129 0.887 0.372 1.26s0.589 0.664 0.994 0.836c0.405 0.172 0.85 0.216 1.279 0.129s0.824-0.304 1.133-0.622l4.311-4.416 6.448 5.812c0.401 0.365 0.919 0.567 1.455 0.567 0.233-0 0.465-0.038 0.687-0.111 0.366-0.119 0.695-0.334 0.954-0.624s0.44-0.644 0.524-1.028l5.946-26.578c0.091-0.402 0.072-0.822-0.054-1.214s-0.354-0.741-0.659-1.010l-0 0zM2.244 14.037c-0.010-0.070 0.004-0.142 0.041-0.202s0.093-0.106 0.159-0.127l24.414-9.824-16.338 12.086-8.022-1.643c-0.069-0.010-0.132-0.044-0.178-0.097s-0.073-0.121-0.075-0.192zM12.227 27.778c-0.044 0.045-0.101 0.076-0.162 0.089s-0.125 0.006-0.183-0.018c-0.058-0.025-0.107-0.066-0.142-0.119s-0.053-0.116-0.053-0.18v-8.394l4.765 4.295-4.226 4.328zM26.098 28.918c-0.012 0.055-0.038 0.105-0.075 0.147s-0.084 0.072-0.136 0.089c-0.052 0.017-0.108 0.020-0.161 0.009s-0.104-0.037-0.145-0.074l-13.323-12.009 19.759-14.617-5.919 26.455z"></path>
</symbol>
<symbol id="icon-tg" viewBox="0 0 39 32">
<path fill="#fff" style="fill: var(--color1, #fff)" d="M15.116 21.252l-0.418 8.63 9.465-8.027-9.048-0.603z"></path>
<path fill="#fff" style="fill: var(--color1, #fff)" d="M36.97 0.65l-35.356 13.456c-1.021 0.371-0.974 1.81 0.046 2.134l9.094 3.062 20.787-13.409-16.425 15.358 12.806 9.697c1.346 1.021 3.248 0.325 3.666-1.299l6.913-27.7c0.232-0.882-0.65-1.624-1.531-1.299z"></path>
</symbol>
<symbol id="icon-viber" viewBox="0 0 32 32">
<path fill="#fff" style="fill: var(--color1, #fff)" d="M8.144 28.9c0-0.535 0.178-1.115-0.045-1.516-0.223-0.357-0.847-0.491-1.293-0.714-2.364-1.249-4.192-3.033-5.129-5.53-0.401-0.981-0.535-2.096-0.714-3.166s-0.223-2.141-0.268-3.211c-0.089-2.319 0.178-4.638 0.669-6.913 0.268-1.293 0.937-2.408 1.739-3.389 1.249-1.561 2.765-2.854 4.683-3.479 1.115-0.357 2.275-0.535 3.434-0.669 1.561-0.178 3.166-0.312 4.728-0.312s3.122 0.134 4.683 0.268c1.026 0.089 2.051 0.268 3.077 0.491 1.784 0.401 3.256 1.427 4.549 2.676 1.249 1.204 2.275 2.631 2.631 4.371 0.535 2.542 0.847 5.084 0.624 7.671-0.134 1.561-0.312 3.077-0.58 4.638-0.312 1.784-1.293 3.166-2.542 4.415-1.293 1.338-2.765 2.408-4.638 2.81-1.427 0.312-2.899 0.446-4.326 0.624-0.758 0.089-1.561 0.134-2.364 0.134-0.892 0-1.829-0.045-2.72-0.045-0.223 0-0.535 0.134-0.714 0.312-1.026 1.026-1.962 2.051-2.944 3.077-0.714 0.714-1.695 0.758-2.23 0.045-0.223-0.312-0.312-0.758-0.357-1.115 0-0.535 0.045-0.981 0.045-1.472zM9.393 27.517c0 0.446 0 0.892 0 1.338s0 0.892 0 1.338c0 0.134 0.089 0.312 0.178 0.357s0.268-0.089 0.357-0.178c0.089-0.045 0.134-0.134 0.223-0.223 1.516-1.561 2.988-3.077 4.504-4.594 0.178-0.178 0.446-0.312 0.713-0.312 2.141 0 4.282-0.178 6.422-0.446 1.249-0.178 2.408-0.491 3.434-1.293 1.338-1.070 2.587-2.23 2.899-3.969 0.312-1.65 0.491-3.345 0.58-5.040 0.045-1.383-0.134-2.81-0.268-4.192-0.134-1.472-0.491-2.899-1.561-4.103s-2.275-2.319-3.925-2.631c-1.606-0.312-3.211-0.491-4.861-0.58-2.676-0.134-5.396-0.045-8.028 0.446-2.854 0.491-4.817 2.141-5.798 4.817-0.446 1.204-0.535 2.542-0.624 3.835-0.089 1.65-0.045 3.345 0.089 4.995 0.045 0.981 0.178 2.007 0.535 2.944 0.803 2.185 2.408 3.613 4.549 4.46 0.401 0.178 0.58 0.357 0.58 0.803-0.045 0.669 0 1.472 0 2.23z"></path>
<path fill="#fff" style="fill: var(--color1, #fff)" d="M17.376 18.018c0.178-0.089 0.401-0.178 0.58-0.312 0.223-0.178 0.357-0.446 0.58-0.624 0.446-0.446 0.981-0.624 1.516-0.312 0.981 0.669 1.962 1.338 2.899 2.096 0.357 0.268 0.491 0.669 0.268 1.115-0.491 1.115-1.204 2.007-2.453 2.364-0.178 0.045-0.357 0.045-0.535 0-4.148-1.472-7.626-3.791-9.945-7.626-0.803-1.293-1.383-2.721-2.052-4.103-0.357-0.669-0.223-1.293 0.178-1.918 0.491-0.714 1.115-1.249 1.873-1.606 0.446-0.223 0.937-0.178 1.249 0.223 0.714 0.892 1.383 1.829 2.007 2.81 0.446 0.714 0.223 1.293-0.401 1.829-0.134 0.089-0.223 0.178-0.357 0.268-0.401 0.312-0.491 0.713-0.312 1.16 0.758 2.096 2.141 3.657 4.282 4.46 0.178 0.089 0.357 0.089 0.624 0.178z"></path>
<path fill="#fff" style="fill: var(--color1, #fff)" d="M23.798 13.915c0 0.134 0.089 0.312 0.045 0.446-0.089 0.178-0.223 0.446-0.401 0.491-0.134 0.045-0.446-0.223-0.491-0.357-0.134-0.446-0.134-0.892-0.178-1.338-0.178-2.631-2.185-5.129-4.727-5.753-0.535-0.134-1.115-0.178-1.695-0.268-0.134 0-0.223-0.045-0.357-0.045-0.312-0.045-0.535-0.134-0.535-0.491 0.045-0.401 0.357-0.491 0.669-0.491 3.434 0.134 6.378 2.096 7.359 5.619 0.178 0.714 0.268 1.472 0.357 2.185 0-0.045 0 0-0.045 0z"></path>
<path fill="#fff" style="fill: var(--color1, #fff)" d="M21.88 13.424c-0.045 0.089 0 0.268-0.089 0.357-0.134 0.134-0.312 0.312-0.491 0.312-0.134 0-0.357-0.223-0.357-0.357-0.134-0.491-0.134-1.070-0.268-1.561-0.446-1.695-1.873-2.854-3.657-3.033-0.178 0-0.312-0.045-0.491-0.089-0.268-0.045-0.446-0.223-0.401-0.491 0.045-0.312 0.268-0.446 0.535-0.446 2.631 0.178 4.861 1.829 5.173 4.727 0 0.134 0.045 0.357 0.045 0.58z"></path>
<path fill="#fff" style="fill: var(--color1, #fff)" d="M17.286 10.125c1.516 0.045 2.676 1.338 2.587 2.765 0 0.312-0.134 0.58-0.446 0.535-0.178-0.045-0.357-0.268-0.535-0.446-0.045-0.045 0-0.134 0-0.178-0.223-1.16-0.535-1.472-1.739-1.695-0.312-0.045-0.535-0.223-0.535-0.535 0.045-0.312 0.268-0.446 0.58-0.446 0.089 0 0.134 0 0.089 0z"></path>
</symbol>
<symbol id="icon-viber-footer-desktop" viewBox="0 0 32 32">
<path fill="#fff" style="fill: var(--color1, #fff)" d="M26.996 3.032c-0.772-0.711-3.895-2.978-10.86-3.008 0 0-8.21-0.492-12.209 3.178-2.224 2.224-3.008 5.488-3.093 9.529s-0.188 11.613 7.11 13.667h0.006l-0.006 3.136c0 0-0.049 1.27 0.79 1.525 1.009 0.316 1.604-0.65 2.571-1.689 0.529-0.571 1.258-1.41 1.811-2.048 4.995 0.419 8.83-0.541 9.268-0.681 1.009-0.328 6.715-1.057 7.639-8.63 0.96-7.815-0.462-12.75-3.026-14.98zM27.841 17.441c-0.784 6.32-5.409 6.721-6.259 6.995-0.365 0.116-3.737 0.954-7.973 0.681 0 0-3.16 3.81-4.145 4.801-0.322 0.322-0.675 0.292-0.668-0.346 0-0.419 0.024-5.208 0.024-5.208-0.006 0-0.006 0 0 0-6.187-1.714-5.822-8.162-5.755-11.534s0.705-6.138 2.589-7.998c3.385-3.069 10.355-2.613 10.355-2.613 5.889 0.024 8.709 1.799 9.365 2.394 2.169 1.86 3.276 6.308 2.467 12.829zM19.394 12.531c0.024 0.523-0.76 0.559-0.784 0.037-0.067-1.337-0.693-1.987-1.981-2.060-0.523-0.030-0.474-0.814 0.042-0.784 1.695 0.091 2.638 1.063 2.723 2.808zM20.627 13.218c0.061-2.577-1.55-4.594-4.607-4.819-0.517-0.036-0.462-0.82 0.055-0.784 3.525 0.255 5.403 2.68 5.336 5.621-0.006 0.523-0.796 0.498-0.784-0.018zM23.484 14.032c0.006 0.523-0.784 0.529-0.784 0.006-0.036-4.953-3.336-7.651-7.341-7.682-0.517-0.006-0.517-0.784 0-0.784 4.479 0.030 8.083 3.124 8.125 8.459zM22.797 19.994v0.012c-0.656 1.155-1.884 2.431-3.148 2.024l-0.012-0.018c-1.282-0.359-4.303-1.914-6.211-3.434-0.985-0.778-1.884-1.695-2.577-2.577-0.626-0.784-1.258-1.714-1.872-2.832-1.294-2.34-1.58-3.385-1.58-3.385-0.407-1.264 0.863-2.492 2.024-3.148h0.012c0.559-0.292 1.094-0.194 1.452 0.237 0 0 0.754 0.899 1.076 1.343 0.304 0.413 0.711 1.076 0.924 1.446 0.371 0.662 0.14 1.337-0.225 1.617l-0.729 0.583c-0.371 0.298-0.322 0.851-0.322 0.851s1.082 4.090 5.123 5.123c0 0 0.553 0.049 0.851-0.322l0.583-0.729c0.279-0.365 0.954-0.596 1.616-0.225 0.893 0.504 2.030 1.288 2.783 1.999 0.425 0.346 0.523 0.875 0.231 1.434z"></path>
</symbol>
<symbol id="icon-viber-hr-cont" viewBox="0 0 30 32">
<path fill="#fff" style="fill: var(--color1, #fff)" d="M7.214 28.321c0-0.524 0.172-1.093-0.043-1.486-0.215-0.35-0.819-0.481-1.25-0.699-2.284-1.224-4.051-2.972-4.956-5.42-0.388-0.962-0.517-2.054-0.69-3.103s-0.215-2.098-0.259-3.147c-0.086-2.273 0.172-4.545 0.646-6.774 0.259-1.267 0.905-2.36 1.681-3.322 1.207-1.53 2.672-2.797 4.525-3.409 1.077-0.35 2.198-0.524 3.318-0.656 1.508-0.175 3.060-0.306 4.568-0.306s3.017 0.131 4.525 0.262c0.991 0.087 1.982 0.262 2.974 0.481 1.724 0.393 3.146 1.399 4.396 2.622 1.207 1.18 2.198 2.579 2.543 4.283 0.517 2.491 0.819 4.982 0.603 7.517-0.129 1.53-0.302 3.016-0.56 4.545-0.302 1.748-1.25 3.103-2.457 4.327-1.25 1.311-2.672 2.36-4.482 2.753-1.379 0.306-2.801 0.437-4.18 0.612-0.733 0.087-1.508 0.131-2.284 0.131-0.862 0-1.767-0.044-2.629-0.044-0.215 0-0.517 0.131-0.69 0.306-0.991 1.005-1.896 2.010-2.844 3.016-0.69 0.699-1.638 0.743-2.155 0.044-0.215-0.306-0.302-0.743-0.345-1.093 0-0.524 0.043-0.962 0.043-1.442zM8.42 26.966c0 0.437 0 0.874 0 1.311s0 0.874 0 1.311c0 0.131 0.086 0.306 0.172 0.35s0.259-0.087 0.345-0.175c0.086-0.044 0.129-0.131 0.216-0.219 1.465-1.53 2.887-3.016 4.353-4.502 0.172-0.175 0.431-0.306 0.69-0.306 2.069 0 4.137-0.175 6.206-0.437 1.207-0.175 2.327-0.481 3.319-1.268 1.293-1.049 2.5-2.185 2.801-3.89 0.302-1.617 0.474-3.278 0.56-4.939 0.043-1.355-0.129-2.753-0.259-4.108-0.129-1.442-0.474-2.841-1.508-4.021s-2.198-2.273-3.793-2.579c-1.551-0.306-3.103-0.481-4.698-0.568-2.586-0.131-5.215-0.044-7.757 0.437-2.758 0.481-4.654 2.098-5.603 4.72-0.431 1.18-0.517 2.491-0.603 3.759-0.086 1.617-0.043 3.278 0.086 4.895 0.043 0.962 0.172 1.967 0.517 2.884 0.776 2.142 2.327 3.54 4.396 4.371 0.388 0.175 0.56 0.35 0.56 0.787-0.043 0.656 0 1.442 0 2.185z"></path>
<path fill="#fff" style="fill: var(--color1, #fff)" d="M16.135 17.657c0.172-0.087 0.388-0.175 0.56-0.306 0.215-0.175 0.345-0.437 0.56-0.612 0.431-0.437 0.948-0.612 1.465-0.306 0.948 0.656 1.896 1.311 2.801 2.054 0.345 0.262 0.474 0.656 0.259 1.093-0.474 1.093-1.164 1.967-2.37 2.316-0.172 0.044-0.345 0.044-0.517 0-4.008-1.442-7.37-3.715-9.611-7.474-0.776-1.267-1.336-2.666-1.982-4.021-0.345-0.656-0.215-1.267 0.172-1.879 0.474-0.699 1.077-1.224 1.81-1.573 0.431-0.219 0.905-0.175 1.207 0.219 0.69 0.874 1.336 1.792 1.939 2.753 0.431 0.699 0.215 1.268-0.388 1.792-0.129 0.087-0.216 0.175-0.345 0.262-0.388 0.306-0.474 0.699-0.302 1.136 0.733 2.054 2.069 3.584 4.137 4.371 0.172 0.087 0.345 0.087 0.603 0.175z"></path>
<path fill="#fff" style="fill: var(--color1, #fff)" d="M22.341 13.637c0 0.131 0.086 0.306 0.043 0.437-0.086 0.175-0.215 0.437-0.388 0.481-0.129 0.044-0.431-0.219-0.474-0.35-0.129-0.437-0.129-0.874-0.172-1.311-0.172-2.579-2.112-5.026-4.568-5.638-0.517-0.131-1.077-0.175-1.638-0.262-0.129 0-0.215-0.044-0.345-0.044-0.302-0.044-0.517-0.131-0.517-0.481 0.043-0.393 0.345-0.481 0.646-0.481 3.318 0.131 6.163 2.054 7.111 5.507 0.172 0.699 0.259 1.442 0.345 2.142 0-0.044 0 0-0.043 0z"></path>
<path fill="#fff" style="fill: var(--color1, #fff)" d="M20.487 13.156c-0.043 0.087 0 0.262-0.086 0.35-0.129 0.131-0.302 0.306-0.474 0.306-0.129 0-0.345-0.219-0.345-0.35-0.129-0.481-0.129-1.049-0.259-1.53-0.431-1.661-1.81-2.797-3.534-2.972-0.172 0-0.302-0.044-0.474-0.087-0.259-0.044-0.431-0.219-0.388-0.481 0.043-0.306 0.259-0.437 0.517-0.437 2.543 0.175 4.697 1.792 4.999 4.633 0 0.131 0.043 0.35 0.043 0.568z"></path>
<path fill="#fff" style="fill: var(--color1, #fff)" d="M16.049 9.922c1.465 0.044 2.586 1.311 2.5 2.71 0 0.306-0.129 0.568-0.431 0.524-0.172-0.044-0.345-0.262-0.517-0.437-0.043-0.044 0-0.131 0-0.175-0.215-1.136-0.517-1.442-1.681-1.661-0.302-0.044-0.517-0.219-0.517-0.524 0.043-0.306 0.259-0.437 0.56-0.437 0.086 0 0.129 0 0.086 0z"></path>
</symbol>
<symbol id="icon-viber-hr-cont-desktop" viewBox="0 0 32 32">
<path fill="#fff" style="fill: var(--color1, #fff)" d="M22.406 8.337c-0.602-0.548-3.036-2.297-8.465-2.32 0 0-6.399-0.38-9.516 2.451-1.734 1.715-2.345 4.232-2.411 7.349s-0.147 8.957 5.542 10.541h0.005l-0.005 2.418c0 0-0.038 0.98 0.616 1.176 0.786 0.244 1.251-0.501 2.004-1.303 0.412-0.441 0.981-1.087 1.412-1.58 3.894 0.324 6.883-0.417 7.223-0.525 0.786-0.253 5.234-0.816 5.954-6.655 0.748-6.027-0.36-9.833-2.359-11.553zM23.065 19.45c-0.611 4.874-4.216 5.184-4.879 5.395-0.284 0.089-2.913 0.736-6.215 0.525 0 0-2.463 2.939-3.23 3.703-0.251 0.248-0.526 0.225-0.521-0.267 0-0.323 0.019-4.017 0.019-4.017-0.005 0-0.005 0 0 0-4.822-1.322-4.538-6.295-4.486-8.896s0.549-4.734 2.018-6.168c2.638-2.367 8.071-2.015 8.071-2.015 4.59 0.019 6.788 1.387 7.299 1.847 1.691 1.434 2.553 4.865 1.923 9.894zM16.481 15.663c0.019 0.403-0.592 0.431-0.611 0.028-0.052-1.031-0.54-1.532-1.544-1.589-0.407-0.023-0.37-0.628 0.033-0.605 1.322 0.070 2.056 0.82 2.122 2.165zM17.442 16.192c0.047-1.987-1.208-3.543-3.591-3.717-0.403-0.028-0.36-0.633 0.043-0.605 2.747 0.197 4.211 2.067 4.159 4.335-0.005 0.403-0.62 0.384-0.611-0.014zM19.668 16.82c0.005 0.403-0.611 0.408-0.611 0.005-0.028-3.82-2.6-5.901-5.722-5.924-0.403-0.005-0.403-0.605 0-0.605 3.491 0.023 6.3 2.409 6.333 6.524zM19.133 21.418v0.009c-0.512 0.891-1.468 1.875-2.454 1.561l-0.009-0.014c-0.999-0.276-3.354-1.476-4.841-2.648-0.767-0.6-1.468-1.308-2.008-1.987-0.488-0.605-0.98-1.322-1.459-2.184-1.009-1.804-1.232-2.611-1.232-2.611-0.317-0.975 0.673-1.922 1.577-2.428h0.010c0.436-0.225 0.853-0.15 1.132 0.183 0 0 0.587 0.694 0.838 1.036 0.237 0.319 0.554 0.83 0.72 1.116 0.289 0.511 0.109 1.031-0.175 1.247l-0.568 0.45c-0.289 0.23-0.251 0.656-0.251 0.656s0.843 3.154 3.993 3.951c0 0 0.431 0.037 0.663-0.248l0.455-0.562c0.218-0.281 0.744-0.459 1.26-0.173 0.696 0.389 1.582 0.994 2.169 1.542 0.332 0.267 0.407 0.675 0.18 1.106z"></path>
</symbol>
<symbol id="icon-wa-footer-desktop" viewBox="0 0 32 32">
<path fill="#fff" style="fill: var(--color1, #fff)" d="M27.466 4.522c-1.435-1.438-3.143-2.578-5.024-3.354s-3.898-1.173-5.935-1.168c-8.539 0-15.49 6.917-15.494 15.418 0 2.717 0.713 5.369 2.067 7.708l-2.197 7.988 8.213-2.145c2.272 1.231 4.817 1.876 7.403 1.877h0.007c8.537 0 15.489-6.917 15.492-15.418 0.006-2.026-0.392-4.033-1.17-5.905s-1.921-3.572-3.364-5.002zM16.508 28.245h-0.005c-2.306 0-4.57-0.617-6.554-1.788l-0.469-0.278-4.873 1.273 1.299-4.728-0.305-0.484c-1.289-2.043-1.972-4.408-1.969-6.82 0.003-7.066 5.779-12.815 12.883-12.815 1.692-0.004 3.367 0.326 4.93 0.972s2.981 1.592 4.173 2.786c1.199 1.189 2.149 2.602 2.795 4.158s0.977 3.225 0.972 4.909c-0.003 7.066-5.779 12.816-12.876 12.816zM23.571 18.646c-0.388-0.194-2.29-1.125-2.646-1.254-0.354-0.129-0.611-0.192-0.87 0.192s-1.001 1.252-1.227 1.51-0.452 0.288-0.839 0.096c-0.387-0.192-1.634-0.599-3.113-1.912-1.151-1.022-1.928-2.283-2.154-2.669s-0.024-0.594 0.171-0.787c0.174-0.172 0.387-0.45 0.58-0.675s0.257-0.385 0.387-0.642c0.129-0.258 0.066-0.483-0.033-0.675-0.097-0.194-0.871-2.090-1.194-2.861-0.312-0.747-0.632-0.648-0.87-0.658-0.247-0.010-0.493-0.015-0.74-0.014-0.196 0.005-0.389 0.050-0.567 0.133s-0.337 0.201-0.466 0.348c-0.355 0.386-1.355 1.317-1.355 3.213s1.387 3.729 1.581 3.986c0.193 0.258 2.73 4.148 6.613 5.817 0.925 0.397 1.646 0.634 2.207 0.812 0.927 0.294 1.771 0.251 2.438 0.153 0.744-0.11 2.29-0.931 2.613-1.831s0.323-1.671 0.226-1.833c-0.097-0.161-0.357-0.259-0.742-0.452z"></path>
</symbol>
<symbol id="icon-whatsapp" viewBox="0 0 33 32">
<path fill="#fff" style="fill: var(--color1, #fff)" d="M0.379 32l2.256-8.588c-1.263-2.35-1.985-4.972-1.985-7.593 0-8.768 7.128-15.819 15.789-15.819s15.79 7.051 15.79 15.819c0 8.678-7.038 15.819-15.79 15.819-2.617 0-5.143-0.633-7.489-1.898l-8.571 2.26zM9.401 26.486l0.541 0.362c1.985 1.175 4.241 1.808 6.496 1.808 7.038 0 12.812-5.785 12.812-12.836s-5.774-12.836-12.812-12.836-12.812 5.785-12.812 12.836c0 2.35 0.632 4.61 1.895 6.599l0.361 0.542-1.263 4.791 4.782-1.265z"></path>
<path fill="#fff" style="fill: var(--color1, #fff)" d="M22.303 17.989c-0.632-0.362-1.534-0.814-2.256-0.542-0.631 0.271-0.992 1.175-1.353 1.627-0.18 0.271-0.451 0.271-0.722 0.181-2.165-0.904-3.88-2.35-5.143-4.339-0.181-0.271-0.181-0.542 0.090-0.813 0.361-0.452 0.812-0.904 0.902-1.537 0.090-0.542-0.181-1.265-0.451-1.808-0.271-0.633-0.631-1.627-1.353-1.989-0.632-0.362-1.444-0.181-1.985 0.271-0.902 0.723-1.353 1.989-1.353 3.164 0 0.361 0.090 0.633 0.090 0.994 0.18 0.814 0.541 1.537 0.992 2.169 0.271 0.542 0.632 0.994 0.992 1.537 1.173 1.627 2.617 2.983 4.331 4.068 0.812 0.542 1.804 0.994 2.707 1.266 1.083 0.361 1.985 0.723 3.158 0.542 1.173-0.271 2.346-0.994 2.887-2.169 0.18-0.361 0.18-0.723 0.090-1.085 0-0.723-0.992-1.175-1.624-1.537z"></path>
</symbol>
</defs>
</svg>
